<svg xmlns="http://www.w3.org/2000/svg" aria-hidden="true" style="position:absolute;width:0;height:0;overflow:hidden"><defs><symbol id="check-box" viewBox="0 0 40 32"><path fill="#f4f4fd" d="M33.784 1.025A3.668 3.668 0 0 1 40 3.606v.003l.001.095c0 .965-.368 1.844-.972 2.504l.003-.003-19.576 24.616a3.67 3.67 0 0 1-2.702 1.182c-.495 0-.967-.098-1.398-.275l.024.009a3.689 3.689 0 0 1-1.224-.816L1.172 17.869a3.706 3.706 0 0 1-.895-4.121l-.009.025a3.708 3.708 0 0 1 3.43-2.312h.053-.003a3.653 3.653 0 0 1 2.622 1.174l.002.002 10.276 10.328 17.04-21.832a1.29 1.29 0 0 1 .1-.108h-.004z" style="fill:var(--color1, #f4f4fd)"/></symbol><symbol id="close" viewBox="0 0 32 32"><path d="M32.009 3.225 28.784 0l-12.78 12.78L3.224 0-.001 3.225l12.78 12.78-12.78 12.78 3.225 3.225 12.78-12.78 12.78 12.78 3.225-3.225-12.78-12.78 12.78-12.78z"/></symbol><symbol id="man" viewBox="0 0 32 32"><path d="M16.012 16.012a8.006 8.006 0 0 0 0-16.012 8.006 8.006 0 0 0 0 16.012zm0 4.003C10.669 20.015 0 22.697 0 28.021v2.002a2.01 2.01 0 0 0 2.002 2.002h28.022a2.01 2.01 0 0 0 2.002-2.002v-2.002c0-5.324-10.67-8.006-16.012-8.006z"/></symbol></defs></svg>